<mxfile host="app.diagrams.net" modified="2023-10-02T15:03:30.749Z" agent="Mozilla/5.0 (Windows NT 10.0; Win64; x64) AppleWebKit/537.36 (KHTML, like Gecko) Chrome/117.0.0.0 Safari/537.36" etag="UpT8i_Tqks3YyZtm9Had" version="22.0.0" type="device">
  <diagram name="1 oldal" id="9JAA04uB8agqEoeXY5pE">
    <mxGraphModel dx="1173" dy="2933" grid="1" gridSize="10" guides="1" tooltips="1" connect="1" arrows="1" fold="1" page="1" pageScale="1" pageWidth="827" pageHeight="1169" math="0" shadow="0">
      <root>
        <mxCell id="0" />
        <mxCell id="1" parent="0" />
        <mxCell id="8jQcZE6iNs6ny8tH0B51-1" value="" style="strokeWidth=1;shadow=0;dashed=0;align=center;html=1;shape=mxgraph.mockup.containers.browserWindow;rSize=0;strokeColor=#666666;strokeColor2=#008cff;strokeColor3=#c4c4c4;mainText=,;recursiveResize=0;" vertex="1" parent="1">
          <mxGeometry x="10" y="-1200" width="1350" height="650" as="geometry" />
        </mxCell>
        <mxCell id="8jQcZE6iNs6ny8tH0B51-2" value="Page 1" style="strokeWidth=1;shadow=0;dashed=0;align=center;html=1;shape=mxgraph.mockup.containers.anchor;fontSize=17;fontColor=#666666;align=left;whiteSpace=wrap;" vertex="1" parent="8jQcZE6iNs6ny8tH0B51-1">
          <mxGeometry x="60" y="12" width="110" height="26" as="geometry" />
        </mxCell>
        <mxCell id="8jQcZE6iNs6ny8tH0B51-3" value="https://www.draw.io" style="strokeWidth=1;shadow=0;dashed=0;align=center;html=1;shape=mxgraph.mockup.containers.anchor;rSize=0;fontSize=17;fontColor=#666666;align=left;" vertex="1" parent="8jQcZE6iNs6ny8tH0B51-1">
          <mxGeometry x="130" y="60" width="250" height="26" as="geometry" />
        </mxCell>
        <mxCell id="8jQcZE6iNs6ny8tH0B51-5" value="" style="shape=image;html=1;verticalAlign=top;verticalLabelPosition=bottom;labelBackgroundColor=#ffffff;imageAspect=0;aspect=fixed;image=https://cdn0.iconfinder.com/data/icons/kameleon-free-pack-rounded/110/Gold-Cart-128.png" vertex="1" parent="8jQcZE6iNs6ny8tH0B51-1">
          <mxGeometry x="611" y="210" width="128" height="128" as="geometry" />
        </mxCell>
        <mxCell id="8jQcZE6iNs6ny8tH0B51-6" value="100000000&lt;br&gt;arany&lt;br&gt;" style="text;html=1;strokeColor=none;fillColor=none;align=center;verticalAlign=middle;whiteSpace=wrap;rounded=0;fontSize=42;" vertex="1" parent="8jQcZE6iNs6ny8tH0B51-1">
          <mxGeometry x="645" y="396" width="60" height="30" as="geometry" />
        </mxCell>
        <mxCell id="8jQcZE6iNs6ny8tH0B51-7" value="123456789 sec" style="text;html=1;strokeColor=none;fillColor=none;align=center;verticalAlign=middle;whiteSpace=wrap;rounded=0;fontSize=30;" vertex="1" parent="8jQcZE6iNs6ny8tH0B51-1">
          <mxGeometry x="500" y="130" width="350" height="70" as="geometry" />
        </mxCell>
        <mxCell id="8jQcZE6iNs6ny8tH0B51-8" value="" style="image;html=1;image=img/lib/clip_art/general/Gear_128x128.png" vertex="1" parent="8jQcZE6iNs6ny8tH0B51-1">
          <mxGeometry x="920" y="170" width="34" height="50" as="geometry" />
        </mxCell>
        <mxCell id="8jQcZE6iNs6ny8tH0B51-9" value="&lt;p style=&quot;line-height: 100%; font-size: 29px;&quot;&gt;db:&amp;nbsp; 999&lt;br style=&quot;font-size: 29px;&quot;&gt;ár: 125k&lt;/p&gt;" style="text;html=1;strokeColor=none;fillColor=none;align=right;verticalAlign=middle;whiteSpace=wrap;rounded=0;fontSize=29;" vertex="1" parent="8jQcZE6iNs6ny8tH0B51-1">
          <mxGeometry x="963" y="180" width="111" height="30" as="geometry" />
        </mxCell>
        <mxCell id="8jQcZE6iNs6ny8tH0B51-10" value="&lt;p style=&quot;line-height: 100%; font-size: 17px;&quot;&gt;&lt;font style=&quot;font-size: 17px;&quot;&gt;&lt;b style=&quot;font-size: 17px;&quot;&gt;Erőforrás neve (12 arany/s)&lt;/b&gt;&lt;/font&gt;&lt;/p&gt;&lt;p style=&quot;line-height: 100%; font-size: 17px;&quot;&gt;&lt;font style=&quot;font-size: 17px;&quot;&gt;Erőforrás leírása&lt;/font&gt;&lt;/p&gt;" style="text;html=1;strokeColor=none;fillColor=none;align=left;verticalAlign=middle;whiteSpace=wrap;rounded=0;fontSize=17;" vertex="1" parent="8jQcZE6iNs6ny8tH0B51-1">
          <mxGeometry x="1083" y="170" width="241" height="60" as="geometry" />
        </mxCell>
        <mxCell id="8jQcZE6iNs6ny8tH0B51-12" value="" style="image;html=1;image=img/lib/clip_art/general/Gear_128x128.png" vertex="1" parent="8jQcZE6iNs6ny8tH0B51-1">
          <mxGeometry x="920" y="230" width="34" height="50" as="geometry" />
        </mxCell>
        <mxCell id="8jQcZE6iNs6ny8tH0B51-13" value="&lt;p style=&quot;line-height: 100%; font-size: 29px;&quot;&gt;db:&amp;nbsp; 999&lt;br style=&quot;font-size: 29px;&quot;&gt;ár: 125k&lt;/p&gt;" style="text;html=1;strokeColor=none;fillColor=none;align=right;verticalAlign=middle;whiteSpace=wrap;rounded=0;fontSize=29;" vertex="1" parent="8jQcZE6iNs6ny8tH0B51-1">
          <mxGeometry x="963" y="254" width="111" height="30" as="geometry" />
        </mxCell>
        <mxCell id="8jQcZE6iNs6ny8tH0B51-14" value="&lt;p style=&quot;line-height: 100%; font-size: 17px;&quot;&gt;&lt;font style=&quot;font-size: 17px;&quot;&gt;&lt;b style=&quot;font-size: 17px;&quot;&gt;Erőforrás neve (12 arany/s)&lt;/b&gt;&lt;/font&gt;&lt;/p&gt;&lt;p style=&quot;line-height: 100%; font-size: 17px;&quot;&gt;&lt;font style=&quot;font-size: 17px;&quot;&gt;Erőforrás leírása&lt;/font&gt;&lt;/p&gt;" style="text;html=1;strokeColor=none;fillColor=none;align=left;verticalAlign=middle;whiteSpace=wrap;rounded=0;fontSize=17;" vertex="1" parent="8jQcZE6iNs6ny8tH0B51-1">
          <mxGeometry x="1083" y="244" width="241" height="60" as="geometry" />
        </mxCell>
        <mxCell id="8jQcZE6iNs6ny8tH0B51-15" value="" style="image;html=1;image=img/lib/clip_art/general/Gear_128x128.png" vertex="1" parent="8jQcZE6iNs6ny8tH0B51-1">
          <mxGeometry x="920" y="306" width="34" height="50" as="geometry" />
        </mxCell>
        <mxCell id="8jQcZE6iNs6ny8tH0B51-16" value="&lt;p style=&quot;line-height: 100%; font-size: 29px;&quot;&gt;db:&amp;nbsp; 999&lt;br style=&quot;font-size: 29px;&quot;&gt;ár: 125k&lt;/p&gt;" style="text;html=1;strokeColor=none;fillColor=none;align=right;verticalAlign=middle;whiteSpace=wrap;rounded=0;fontSize=29;" vertex="1" parent="8jQcZE6iNs6ny8tH0B51-1">
          <mxGeometry x="963" y="330" width="111" height="30" as="geometry" />
        </mxCell>
        <mxCell id="8jQcZE6iNs6ny8tH0B51-17" value="&lt;p style=&quot;line-height: 100%; font-size: 17px;&quot;&gt;&lt;font style=&quot;font-size: 17px;&quot;&gt;&lt;b style=&quot;font-size: 17px;&quot;&gt;Erőforrás neve (12 arany/s)&lt;/b&gt;&lt;/font&gt;&lt;/p&gt;&lt;p style=&quot;line-height: 100%; font-size: 17px;&quot;&gt;&lt;font style=&quot;font-size: 17px;&quot;&gt;Erőforrás leírása&lt;/font&gt;&lt;/p&gt;" style="text;html=1;strokeColor=none;fillColor=none;align=left;verticalAlign=middle;whiteSpace=wrap;rounded=0;fontSize=17;" vertex="1" parent="8jQcZE6iNs6ny8tH0B51-1">
          <mxGeometry x="1083" y="320" width="241" height="60" as="geometry" />
        </mxCell>
        <mxCell id="8jQcZE6iNs6ny8tH0B51-18" value="" style="image;html=1;image=img/lib/clip_art/general/Gear_128x128.png" vertex="1" parent="8jQcZE6iNs6ny8tH0B51-1">
          <mxGeometry x="920" y="396" width="34" height="50" as="geometry" />
        </mxCell>
        <mxCell id="8jQcZE6iNs6ny8tH0B51-19" value="&lt;p style=&quot;line-height: 100%; font-size: 29px;&quot;&gt;db:&amp;nbsp; 999&lt;br style=&quot;font-size: 29px;&quot;&gt;ár: 125k&lt;/p&gt;" style="text;html=1;strokeColor=none;fillColor=none;align=right;verticalAlign=middle;whiteSpace=wrap;rounded=0;fontSize=29;" vertex="1" parent="8jQcZE6iNs6ny8tH0B51-1">
          <mxGeometry x="963" y="420" width="111" height="30" as="geometry" />
        </mxCell>
        <mxCell id="8jQcZE6iNs6ny8tH0B51-20" value="&lt;p style=&quot;line-height: 100%; font-size: 17px;&quot;&gt;&lt;font style=&quot;font-size: 17px;&quot;&gt;&lt;b style=&quot;font-size: 17px;&quot;&gt;Erőforrás neve (12 arany/s)&lt;/b&gt;&lt;/font&gt;&lt;/p&gt;&lt;p style=&quot;line-height: 100%; font-size: 17px;&quot;&gt;&lt;font style=&quot;font-size: 17px;&quot;&gt;Erőforrás leírása&lt;/font&gt;&lt;/p&gt;" style="text;html=1;strokeColor=none;fillColor=none;align=left;verticalAlign=middle;whiteSpace=wrap;rounded=0;fontSize=17;" vertex="1" parent="8jQcZE6iNs6ny8tH0B51-1">
          <mxGeometry x="1083" y="410" width="241" height="60" as="geometry" />
        </mxCell>
        <mxCell id="8jQcZE6iNs6ny8tH0B51-21" value="" style="image;html=1;image=img/lib/clip_art/general/Gear_128x128.png" vertex="1" parent="8jQcZE6iNs6ny8tH0B51-1">
          <mxGeometry x="920" y="466" width="34" height="50" as="geometry" />
        </mxCell>
        <mxCell id="8jQcZE6iNs6ny8tH0B51-22" value="&lt;p style=&quot;line-height: 100%; font-size: 29px;&quot;&gt;db:&amp;nbsp; 0&lt;br style=&quot;font-size: 29px;&quot;&gt;ár: ???&lt;/p&gt;" style="text;html=1;strokeColor=none;fillColor=none;align=right;verticalAlign=middle;whiteSpace=wrap;rounded=0;fontSize=29;" vertex="1" parent="8jQcZE6iNs6ny8tH0B51-1">
          <mxGeometry x="954" y="490" width="111" height="30" as="geometry" />
        </mxCell>
        <mxCell id="8jQcZE6iNs6ny8tH0B51-23" value="&lt;p style=&quot;line-height: 100%; font-size: 17px;&quot;&gt;&lt;b&gt;??????????&lt;/b&gt;&lt;/p&gt;&lt;p style=&quot;line-height: 100%; font-size: 17px;&quot;&gt;???????????&lt;/p&gt;" style="text;html=1;strokeColor=none;fillColor=none;align=left;verticalAlign=middle;whiteSpace=wrap;rounded=0;fontSize=17;" vertex="1" parent="8jQcZE6iNs6ny8tH0B51-1">
          <mxGeometry x="1074" y="480" width="241" height="60" as="geometry" />
        </mxCell>
        <mxCell id="8jQcZE6iNs6ny8tH0B51-24" value="" style="image;html=1;image=img/lib/clip_art/general/Gear_128x128.png" vertex="1" parent="8jQcZE6iNs6ny8tH0B51-1">
          <mxGeometry x="920" y="556" width="34" height="50" as="geometry" />
        </mxCell>
        <mxCell id="8jQcZE6iNs6ny8tH0B51-27" value="&lt;p style=&quot;line-height: 100%; font-size: 29px;&quot;&gt;db:&amp;nbsp; 0&lt;br style=&quot;font-size: 29px;&quot;&gt;ár: ???&lt;/p&gt;" style="text;html=1;strokeColor=none;fillColor=none;align=right;verticalAlign=middle;whiteSpace=wrap;rounded=0;fontSize=29;" vertex="1" parent="8jQcZE6iNs6ny8tH0B51-1">
          <mxGeometry x="963" y="576" width="111" height="30" as="geometry" />
        </mxCell>
        <mxCell id="8jQcZE6iNs6ny8tH0B51-28" value="&lt;p style=&quot;line-height: 100%; font-size: 17px;&quot;&gt;&lt;b&gt;??????????&lt;/b&gt;&lt;/p&gt;&lt;p style=&quot;line-height: 100%; font-size: 17px;&quot;&gt;???????????&lt;/p&gt;" style="text;html=1;strokeColor=none;fillColor=none;align=left;verticalAlign=middle;whiteSpace=wrap;rounded=0;fontSize=17;" vertex="1" parent="8jQcZE6iNs6ny8tH0B51-1">
          <mxGeometry x="1083" y="566" width="241" height="60" as="geometry" />
        </mxCell>
        <mxCell id="8jQcZE6iNs6ny8tH0B51-29" value="" style="image;html=1;image=img/lib/clip_art/general/Gear_128x128.png" vertex="1" parent="8jQcZE6iNs6ny8tH0B51-1">
          <mxGeometry x="386" y="170" width="34" height="50" as="geometry" />
        </mxCell>
        <mxCell id="8jQcZE6iNs6ny8tH0B51-30" value="" style="image;html=1;image=img/lib/clip_art/general/Gear_128x128.png" vertex="1" parent="8jQcZE6iNs6ny8tH0B51-1">
          <mxGeometry x="386" y="244" width="34" height="50" as="geometry" />
        </mxCell>
        <mxCell id="8jQcZE6iNs6ny8tH0B51-31" value="" style="image;html=1;image=img/lib/clip_art/general/Gear_128x128.png" vertex="1" parent="8jQcZE6iNs6ny8tH0B51-1">
          <mxGeometry x="386" y="320" width="34" height="50" as="geometry" />
        </mxCell>
        <mxCell id="8jQcZE6iNs6ny8tH0B51-32" value="" style="image;html=1;image=img/lib/clip_art/general/Gear_128x128.png" vertex="1" parent="8jQcZE6iNs6ny8tH0B51-1">
          <mxGeometry x="386" y="410" width="34" height="50" as="geometry" />
        </mxCell>
        <mxCell id="8jQcZE6iNs6ny8tH0B51-33" value="" style="image;html=1;image=img/lib/clip_art/general/Gear_128x128.png" vertex="1" parent="8jQcZE6iNs6ny8tH0B51-1">
          <mxGeometry x="380" y="490" width="34" height="50" as="geometry" />
        </mxCell>
        <mxCell id="8jQcZE6iNs6ny8tH0B51-34" value="" style="image;html=1;image=img/lib/clip_art/general/Gear_128x128.png" vertex="1" parent="8jQcZE6iNs6ny8tH0B51-1">
          <mxGeometry x="380" y="556" width="34" height="50" as="geometry" />
        </mxCell>
        <mxCell id="8jQcZE6iNs6ny8tH0B51-51" value="" style="edgeStyle=orthogonalEdgeStyle;rounded=0;orthogonalLoop=1;jettySize=auto;html=1;" edge="1" parent="8jQcZE6iNs6ny8tH0B51-1" source="8jQcZE6iNs6ny8tH0B51-35" target="8jQcZE6iNs6ny8tH0B51-3">
          <mxGeometry relative="1" as="geometry" />
        </mxCell>
        <mxCell id="8jQcZE6iNs6ny8tH0B51-35" value="&lt;p style=&quot;line-height: 100%; font-size: 29px;&quot;&gt;db:&amp;nbsp; 999&lt;br style=&quot;font-size: 29px;&quot;&gt;ár: 125k&lt;/p&gt;" style="text;html=1;strokeColor=none;fillColor=none;align=left;verticalAlign=middle;whiteSpace=wrap;rounded=0;fontSize=29;" vertex="1" parent="8jQcZE6iNs6ny8tH0B51-1">
          <mxGeometry x="269" y="180" width="111" height="30" as="geometry" />
        </mxCell>
        <mxCell id="8jQcZE6iNs6ny8tH0B51-36" value="&lt;p style=&quot;line-height: 100%; font-size: 29px;&quot;&gt;db:&amp;nbsp; 999&lt;br style=&quot;font-size: 29px;&quot;&gt;ár: 125k&lt;/p&gt;" style="text;html=1;strokeColor=none;fillColor=none;align=left;verticalAlign=middle;whiteSpace=wrap;rounded=0;fontSize=29;" vertex="1" parent="8jQcZE6iNs6ny8tH0B51-1">
          <mxGeometry x="269" y="254" width="111" height="30" as="geometry" />
        </mxCell>
        <mxCell id="8jQcZE6iNs6ny8tH0B51-37" value="&lt;p style=&quot;line-height: 100%; font-size: 29px;&quot;&gt;db:&amp;nbsp; 999&lt;br style=&quot;font-size: 29px;&quot;&gt;ár: 125k&lt;/p&gt;" style="text;html=1;strokeColor=none;fillColor=none;align=left;verticalAlign=middle;whiteSpace=wrap;rounded=0;fontSize=29;" vertex="1" parent="8jQcZE6iNs6ny8tH0B51-1">
          <mxGeometry x="269" y="330" width="111" height="30" as="geometry" />
        </mxCell>
        <mxCell id="8jQcZE6iNs6ny8tH0B51-38" value="&lt;p style=&quot;line-height: 100%; font-size: 29px;&quot;&gt;db:&amp;nbsp; 999&lt;br style=&quot;font-size: 29px;&quot;&gt;ár: 125k&lt;/p&gt;" style="text;html=1;strokeColor=none;fillColor=none;align=left;verticalAlign=middle;whiteSpace=wrap;rounded=0;fontSize=29;" vertex="1" parent="8jQcZE6iNs6ny8tH0B51-1">
          <mxGeometry x="269" y="420" width="111" height="30" as="geometry" />
        </mxCell>
        <mxCell id="8jQcZE6iNs6ny8tH0B51-39" value="&lt;p style=&quot;line-height: 100%; font-size: 29px;&quot;&gt;db:&amp;nbsp; 0&lt;br style=&quot;font-size: 29px;&quot;&gt;ár: ???&lt;/p&gt;" style="text;html=1;strokeColor=none;fillColor=none;align=left;verticalAlign=middle;whiteSpace=wrap;rounded=0;fontSize=29;" vertex="1" parent="8jQcZE6iNs6ny8tH0B51-1">
          <mxGeometry x="269" y="490" width="111" height="30" as="geometry" />
        </mxCell>
        <mxCell id="8jQcZE6iNs6ny8tH0B51-40" value="&lt;p style=&quot;line-height: 100%; font-size: 29px;&quot;&gt;db:&amp;nbsp; 0&lt;br style=&quot;font-size: 29px;&quot;&gt;ár: ???&lt;/p&gt;" style="text;html=1;strokeColor=none;fillColor=none;align=left;verticalAlign=middle;whiteSpace=wrap;rounded=0;fontSize=29;" vertex="1" parent="8jQcZE6iNs6ny8tH0B51-1">
          <mxGeometry x="269" y="566" width="111" height="30" as="geometry" />
        </mxCell>
        <mxCell id="8jQcZE6iNs6ny8tH0B51-41" value="&lt;p style=&quot;line-height: 100%; font-size: 16px;&quot;&gt;&lt;font style=&quot;font-size: 16px;&quot;&gt;&lt;b style=&quot;font-size: 16px;&quot;&gt;Erőforrás neve (12 arany/click&lt;/b&gt;&lt;/font&gt;&lt;b style=&quot;background-color: initial; font-size: 16px;&quot;&gt;)&lt;/b&gt;&lt;/p&gt;&lt;p style=&quot;line-height: 100%; font-size: 16px;&quot;&gt;&lt;font style=&quot;font-size: 16px;&quot;&gt;Erőforrás leírása&lt;/font&gt;&lt;/p&gt;" style="text;html=1;strokeColor=none;fillColor=none;align=right;verticalAlign=middle;whiteSpace=wrap;rounded=0;fontSize=16;" vertex="1" parent="8jQcZE6iNs6ny8tH0B51-1">
          <mxGeometry x="9" y="164" width="241" height="60" as="geometry" />
        </mxCell>
        <mxCell id="8jQcZE6iNs6ny8tH0B51-45" value="&lt;p style=&quot;line-height: 100%; font-size: 17px;&quot;&gt;&lt;b&gt;??????????&lt;/b&gt;&lt;/p&gt;&lt;p style=&quot;line-height: 100%; font-size: 17px;&quot;&gt;???????????&lt;/p&gt;" style="text;html=1;strokeColor=none;fillColor=none;align=right;verticalAlign=middle;whiteSpace=wrap;rounded=0;fontSize=17;" vertex="1" parent="8jQcZE6iNs6ny8tH0B51-1">
          <mxGeometry y="474" width="241" height="60" as="geometry" />
        </mxCell>
        <mxCell id="8jQcZE6iNs6ny8tH0B51-46" value="&lt;p style=&quot;line-height: 100%; font-size: 17px;&quot;&gt;&lt;b&gt;??????????&lt;/b&gt;&lt;/p&gt;&lt;p style=&quot;line-height: 100%; font-size: 17px;&quot;&gt;???????????&lt;/p&gt;" style="text;html=1;strokeColor=none;fillColor=none;align=right;verticalAlign=middle;whiteSpace=wrap;rounded=0;fontSize=17;" vertex="1" parent="8jQcZE6iNs6ny8tH0B51-1">
          <mxGeometry x="-5.5" y="551" width="241" height="60" as="geometry" />
        </mxCell>
        <mxCell id="8jQcZE6iNs6ny8tH0B51-52" value="&lt;p style=&quot;line-height: 100%; font-size: 16px;&quot;&gt;&lt;font style=&quot;font-size: 16px;&quot;&gt;&lt;b style=&quot;font-size: 16px;&quot;&gt;Erőforrás neve (12 arany/click&lt;/b&gt;&lt;/font&gt;&lt;b style=&quot;background-color: initial; font-size: 16px;&quot;&gt;)&lt;/b&gt;&lt;/p&gt;&lt;p style=&quot;line-height: 100%; font-size: 16px;&quot;&gt;&lt;font style=&quot;font-size: 16px;&quot;&gt;Erőforrás leírása&lt;/font&gt;&lt;/p&gt;" style="text;html=1;strokeColor=none;fillColor=none;align=right;verticalAlign=middle;whiteSpace=wrap;rounded=0;fontSize=16;" vertex="1" parent="8jQcZE6iNs6ny8tH0B51-1">
          <mxGeometry x="9" y="239" width="241" height="60" as="geometry" />
        </mxCell>
        <mxCell id="8jQcZE6iNs6ny8tH0B51-53" value="&lt;p style=&quot;line-height: 100%; font-size: 16px;&quot;&gt;&lt;font style=&quot;font-size: 16px;&quot;&gt;&lt;b style=&quot;font-size: 16px;&quot;&gt;Erőforrás neve (12 arany/click&lt;/b&gt;&lt;/font&gt;&lt;b style=&quot;background-color: initial; font-size: 16px;&quot;&gt;)&lt;/b&gt;&lt;/p&gt;&lt;p style=&quot;line-height: 100%; font-size: 16px;&quot;&gt;&lt;font style=&quot;font-size: 16px;&quot;&gt;Erőforrás leírása&lt;/font&gt;&lt;/p&gt;" style="text;html=1;strokeColor=none;fillColor=none;align=right;verticalAlign=middle;whiteSpace=wrap;rounded=0;fontSize=16;" vertex="1" parent="8jQcZE6iNs6ny8tH0B51-1">
          <mxGeometry x="19" y="320" width="241" height="60" as="geometry" />
        </mxCell>
        <mxCell id="8jQcZE6iNs6ny8tH0B51-54" value="&lt;p style=&quot;line-height: 100%; font-size: 16px;&quot;&gt;&lt;font style=&quot;font-size: 16px;&quot;&gt;&lt;b style=&quot;font-size: 16px;&quot;&gt;Erőforrás neve (12 arany/click&lt;/b&gt;&lt;/font&gt;&lt;b style=&quot;background-color: initial; font-size: 16px;&quot;&gt;)&lt;/b&gt;&lt;/p&gt;&lt;p style=&quot;line-height: 100%; font-size: 16px;&quot;&gt;&lt;font style=&quot;font-size: 16px;&quot;&gt;Erőforrás leírása&lt;/font&gt;&lt;/p&gt;" style="text;html=1;strokeColor=none;fillColor=none;align=right;verticalAlign=middle;whiteSpace=wrap;rounded=0;fontSize=16;" vertex="1" parent="8jQcZE6iNs6ny8tH0B51-1">
          <mxGeometry x="19" y="395" width="241" height="60" as="geometry" />
        </mxCell>
        <mxCell id="8jQcZE6iNs6ny8tH0B51-55" value="&lt;p style=&quot;line-height: 180%;&quot;&gt;123456 arany/ click&lt;br style=&quot;font-size: 32px;&quot;&gt;123456 arany/sec&lt;/p&gt;" style="text;html=1;strokeColor=none;fillColor=none;align=center;verticalAlign=middle;whiteSpace=wrap;rounded=0;fontSize=32;" vertex="1" parent="8jQcZE6iNs6ny8tH0B51-1">
          <mxGeometry x="495" y="466" width="360" height="154" as="geometry" />
        </mxCell>
      </root>
    </mxGraphModel>
  </diagram>
</mxfile>
